RBDS023runT35_grf
version=1
nRows=27
nColumns=19
inDegrees=no
endheader
time	ground_force_r_vx	ground_force_r_vy	ground_force_r_vz	ground_force_r_px	ground_force_r_py	ground_force_r_pz	ground_force_r_mx	ground_force_r_my	ground_force_r_mz	ground_force_l_vx	ground_force_l_vy	ground_force_l_vz	ground_force_l_px	ground_force_l_py	ground_force_l_pz	ground_force_l_mx	ground_force_l_my	ground_force_l_mz
     14.99900000	      0.00000000	      0.00000000	      0.00000000	      0.00000000	      0.00000000	      0.00000000	      0.00000000	      0.00000000	      0.00000000	   -145.80942261	   1808.10397975	     55.81556826	      2.37551749	      0.00000000	      0.95578766	      0.00000000	      9.32292120	     -0.00000000
     15.00000000	      0.00000000	      0.00000000	      0.00000000	      0.00000000	      0.00000000	      0.00000000	      0.00000000	      0.00000000	      0.00000000	   -140.96968947	   1813.38320732	     56.64377061	      2.37258365	      0.00000000	      0.95558267	      0.00000000	      9.45319783	     -0.00000000
     15.00100000	      0.00000000	      0.00000000	      0.00000000	      0.00000000	      0.00000000	      0.00000000	      0.00000000	      0.00000000	      0.00000000	   -135.70762578	   1817.31470991	     57.37162127	      2.36956975	      0.00000000	      0.95538574	      0.00000000	      9.56994600	     -0.00000000
     15.00200000	      0.00000000	      0.00000000	      0.00000000	      0.00000000	      0.00000000	      0.00000000	      0.00000000	      0.00000000	      0.00000000	   -130.44556210	   1821.24621251	     58.09947194	      2.36655585	      0.00000000	      0.95518880	      0.00000000	      9.68669416	     -0.00000000
     15.00300000	      0.00000000	      0.00000000	      0.00000000	      0.00000000	      0.00000000	      0.00000000	      0.00000000	      0.00000000	      0.00000000	   -125.18349841	   1825.17771510	     58.82732260	      2.36354194	      0.00000000	      0.95499187	      0.00000000	      9.80344233	     -0.00000000
     15.00400000	      0.00000000	      0.00000000	      0.00000000	      0.00000000	      0.00000000	      0.00000000	      0.00000000	      0.00000000	      0.00000000	   -119.68266829	   1828.19984564	     59.47908940	      2.36048461	      0.00000000	      0.95480124	      0.00000000	      9.91080678	     -0.00000000
     15.00500000	      0.00000000	      0.00000000	      0.00000000	      0.00000000	      0.00000000	      0.00000000	      0.00000000	      0.00000000	      0.00000000	   -114.06245495	   1830.76729014	     60.09281428	      2.35740556	      0.00000000	      0.95461376	      0.00000000	     10.01347937	     -0.00000000
     15.00600000	      0.00000000	      0.00000000	      0.00000000	      0.00000000	      0.00000000	      0.00000000	      0.00000000	      0.00000000	      0.00000000	   -108.44224160	   1833.33473464	     60.70653916	      2.35432651	      0.00000000	      0.95442629	      0.00000000	     10.11615196	     -0.00000000
     15.00700000	      0.00000000	      0.00000000	      0.00000000	      0.00000000	      0.00000000	      0.00000000	      0.00000000	      0.00000000	      0.00000000	   -102.72381417	   1835.44465808	     61.27835761	      2.35123035	      0.00000000	      0.95424241	      0.00000000	     10.21409327	     -0.00000000
     15.00800000	      0.00000000	      0.00000000	      0.00000000	      0.00000000	      0.00000000	      0.00000000	      0.00000000	      0.00000000	      0.00000000	    -96.80895857	   1836.63953940	     61.76636322	      2.34809998	      0.00000000	      0.95406572	      0.00000000	     10.30257204	     -0.00000000
     15.00900000	      0.00000000	      0.00000000	      0.00000000	      0.00000000	      0.00000000	      0.00000000	      0.00000000	      0.00000000	      0.00000000	    -90.89410297	   1837.83442072	     62.25436882	      2.34496962	      0.00000000	      0.95388903	      0.00000000	     10.39105080	     -0.00000000
     15.01000000	      0.00000000	      0.00000000	      0.00000000	      0.00000000	      0.00000000	      0.00000000	      0.00000000	      0.00000000	      0.00000000	    -84.97924737	   1839.02930204	     62.74237443	      2.34183925	      0.00000000	      0.95371234	      0.00000000	     10.47952956	     -0.00000000
     15.01100000	      0.00000000	      0.00000000	      0.00000000	      0.00000000	      0.00000000	      0.00000000	      0.00000000	      0.00000000	      0.00000000	    -78.83147706	   1838.85033590	     63.09534649	      2.33866988	      0.00000000	      0.95354767	      0.00000000	     10.55406621	     -0.00000000
     15.01200000	      0.00000000	      0.00000000	      0.00000000	      0.00000000	      0.00000000	      0.00000000	      0.00000000	      0.00000000	      0.00000000	    -72.68370674	   1838.67136976	     63.44831854	      2.33550051	      0.00000000	      0.95338299	      0.00000000	     10.62860285	     -0.00000000
     15.01300000	      0.00000000	      0.00000000	      0.00000000	      0.00000000	      0.00000000	      0.00000000	      0.00000000	      0.00000000	      0.00000000	    -66.53593643	   1838.49240363	     63.80129060	      2.33233113	      0.00000000	      0.95321831	      0.00000000	     10.70313950	     -0.00000000
     15.01400000	      0.00000000	      0.00000000	      0.00000000	      0.00000000	      0.00000000	      0.00000000	      0.00000000	      0.00000000	      0.00000000	    -60.27238181	   1837.40092329	     64.05958855	      2.32914272	      0.00000000	      0.95306239	      0.00000000	     10.76874543	     -0.00000000
     15.01500000	      0.00000000	      0.00000000	      0.00000000	      0.00000000	      0.00000000	      0.00000000	      0.00000000	      0.00000000	      0.00000000	    -53.95093505	   1835.85318585	     64.27054943	      2.32594479	      0.00000000	      0.95291084	      0.00000000	     10.82988600	     -0.00000000
     15.01600000	      0.00000000	      0.00000000	      0.00000000	      0.00000000	      0.00000000	      0.00000000	      0.00000000	      0.00000000	      0.00000000	    -47.62948829	   1834.30544841	     64.48151032	      2.32274686	      0.00000000	      0.95275930	      0.00000000	     10.89102657	     -0.00000000
     15.01700000	      0.00000000	      0.00000000	      0.00000000	      0.00000000	      0.00000000	      0.00000000	      0.00000000	      0.00000000	      0.00000000	    -41.26895885	   1832.30493129	     64.64359530	      2.31954221	      0.00000000	      0.95261247	      0.00000000	     10.94795319	     -0.00000000
     15.01800000	      0.00000000	      0.00000000	      0.00000000	      0.00000000	      0.00000000	      0.00000000	      0.00000000	      0.00000000	      0.00000000	    -34.83026406	   1829.39885483	     64.70792845	      2.31632414	      0.00000000	      0.95247507	      0.00000000	     10.99645194	     -0.00000000
     15.01900000	      0.00000000	      0.00000000	      0.00000000	      0.00000000	      0.00000000	      0.00000000	      0.00000000	      0.00000000	      0.00000000	    -28.39156927	   1826.49277836	     64.77226161	      2.31310606	      0.00000000	      0.95233767	      0.00000000	     11.04495068	     -0.00000000
     15.02000000	      0.00000000	      0.00000000	      0.00000000	      0.00000000	      0.00000000	      0.00000000	      0.00000000	      0.00000000	      0.00000000	    -21.95287448	   1823.58670190	     64.83659477	      2.30988799	      0.00000000	      0.95220027	      0.00000000	     11.09344942	     -0.00000000
     15.02100000	      0.00000000	      0.00000000	      0.00000000	      0.00000000	      0.00000000	      0.00000000	      0.00000000	      0.00000000	      0.00000000	    -15.45058340	   1819.33704040	     64.75204454	      2.30665612	      0.00000000	      0.95207791	      0.00000000	     11.13017870	     -0.00000000
     15.02200000	      0.00000000	      0.00000000	      0.00000000	      0.00000000	      0.00000000	      0.00000000	      0.00000000	      0.00000000	      0.00000000	     -8.94829233	   1815.08737890	     64.66749432	      2.30342424	      0.00000000	      0.95195554	      0.00000000	     11.16690798	     -0.00000000
     15.02300000	      0.00000000	      0.00000000	      0.00000000	      0.00000000	      0.00000000	      0.00000000	      0.00000000	      0.00000000	      0.00000000	     -2.44600125	   1810.83771740	     64.58294409	      2.30019237	      0.00000000	      0.95183318	      0.00000000	     11.20363726	     -0.00000000
     15.02400000	      0.00000000	      0.00000000	      0.00000000	      0.00000000	      0.00000000	      0.00000000	      0.00000000	      0.00000000	      0.00000000	      4.06455349	   1805.70441309	     64.39919821	      2.29695422	      0.00000000	      0.95172134	      0.00000000	     11.23312198	     -0.00000000
     15.02500000	      0.00000000	      0.00000000	      0.00000000	      0.00000000	      0.00000000	      0.00000000	      0.00000000	      0.00000000	      0.00000000	     10.57924008	   1800.12928737	     64.16585450	      2.29371294	      0.00000000	      0.95161476	      0.00000000	     11.25898442	     -0.00000000
